# xmcd
#
# Track frame offsets: 
#        150
#        12152
#        24110
#        36835
#        48920
#        58937
#        69570
#        80267
#        92280
#        102955
#        113715
#        123327
#        133607
#        143805
#        155885
#        168247
#        179562
#        190450
#        202157
#        213617
#        224565
#        236712
#        248107
#        262085
#        273177
#        284835
#        297877
#        304310
#        310082
#        322877
#
# Disc length: 4476 seconds
#
# Revision: 1
# Processed by: cddbd v1.5.2PL0 Copyright (c) Steve Scherf et al.
# Submitted via: ExactAudioCopy v0.95b4
#
DISCID=c8117a1e
DTITLE=Rod Morris - Bimbo
DYEAR=2000
DGENRE=Hillbilly
TTITLE0=Alabama Jail House
TTITLE1=Ghost Of Casey Jones
TTITLE2=Bimbo
TTITLE3=Bimbo #2
TTITLE4=Honey, Honey, Honey
TTITLE5=Drunkard's Blues
TTITLE6=Cry Baby Blues
TTITLE7=I Feel Like A Wreck
TTITLE8=I've Got News For You
TTITLE9=Nobody Home
TTITLE10=Ten To One I Love You
TTITLE11=Three Empty Botties
TTITLE12=Is There Anymore At Home Like You
TTITLE13=That's How I Take To You
TTITLE14=I'm Not A Kid Anymore
TTITLE15=Cold Cold Cornbread
TTITLE16=When It Rains Banana Peelin's
TTITLE17=Free Wise And Twenty-One
TTITLE18=Don't Put Off 'Til Tomorrow (What You Can Do Today)
TTITLE19=Don't You Ever Get Tired
TTITLE20=That's Nature
TTITLE21=Hey Mr. Mockingbird
TTITLE22=Everything To Lose Nothing To Gain
TTITLE23=I'm Comin' Over Tonight
TTITLE24=Nobody Knows Grandpa Like Grandma
TTITLE25=Change
TTITLE26=I Lived With The Angels
TTITLE27=Bony Eyes Of Blue
TTITLE28=Heartbreak Letter
TTITLE29=Free White, And Twenty-One
EXTD=
EXTT0=
EXTT1=
EXTT2=
EXTT3=
EXTT4=
EXTT5=
EXTT6=
EXTT7=
EXTT8=
EXTT9=
EXTT10=
EXTT11=
EXTT12=
EXTT13=
EXTT14=
EXTT15=
EXTT16=
EXTT17=
EXTT18=
EXTT19=
EXTT20=
EXTT21=
EXTT22=
EXTT23=
EXTT24=
EXTT25=
EXTT26=
EXTT27=
EXTT28=
EXTT29=
PLAYORDER=
